<svg width="21" height="21" viewBox="0 0 21 21" fill="none" xmlns="http://www.w3.org/2000/svg">
<path d="M19.9425 3.1725C20.5265 2.58846 20.5265 1.64154 19.9425 1.0575C19.3585 0.473459 18.4115 0.473459 17.8275 1.0575L10.5 8.385L3.1725 1.0575C2.58846 0.473458 1.64154 0.473459 1.0575 1.0575C0.473459 1.64154 0.473459 2.58846 1.0575 3.1725L8.385 10.5L1.0575 17.8275C0.473458 18.4115 0.473459 19.3585 1.0575 19.9425C1.64154 20.5265 2.58846 20.5265 3.1725 19.9425L10.5 12.615L17.8275 19.9425C18.4115 20.5265 19.3585 20.5265 19.9425 19.9425C20.5265 19.3585 20.5265 18.4115 19.9425 17.8275L12.615 10.5L19.9425 3.1725Z" fill="#8D94A0"/>
</svg>
